<?xml version="1.0" encoding="UTF-8" standalone="no"?>
<!-- Created with Inkscape (http://www.inkscape.org/) -->

<svg
   version="1.1"
   id="svg2"
   xml:space="preserve"
   width="864.4837"
   height="366.88"
   viewBox="0 0 864.48366 366.88"
   sodipodi:docname="webnn_arch.svg"
   inkscape:version="1.1.2 (0a00cf5339, 2022-02-04)"
   xmlns:inkscape="http://www.inkscape.org/namespaces/inkscape"
   xmlns:sodipodi="http://sodipodi.sourceforge.net/DTD/sodipodi-0.dtd"
   xmlns="http://www.w3.org/2000/svg"
   xmlns:svg="http://www.w3.org/2000/svg"
   xmlns:rdf="http://www.w3.org/1999/02/22-rdf-syntax-ns#"
   xmlns:cc="http://creativecommons.org/ns#"
   xmlns:dc="http://purl.org/dc/elements/1.1/"><metadata
     id="metadata8"><rdf:RDF><cc:Work
         rdf:about=""><dc:format>image/svg+xml</dc:format><dc:type
           rdf:resource="http://purl.org/dc/dcmitype/StillImage" /></cc:Work></rdf:RDF></metadata><defs
     id="defs6"><clipPath
       clipPathUnits="userSpaceOnUse"
       id="clipPath18"><path
         d="M 0,1.2207e-4 H 960 V 540.00012 H 0 Z"
         id="path16"
         inkscape:connector-curvature="0"
         style="clip-rule:evenodd" /></clipPath><clipPath
       clipPathUnits="userSpaceOnUse"
       id="clipPath28"><path
         d="M 1.4305e-5,0 H 960.00001 V 540 H 1.4305e-5 Z"
         id="path26"
         inkscape:connector-curvature="0"
         style="clip-rule:evenodd" /></clipPath><clipPath
       clipPathUnits="userSpaceOnUse"
       id="clipPath40"><path
         d="M 1.4305e-5,0 H 960.00001 V 540 H 1.4305e-5 Z"
         id="path38"
         inkscape:connector-curvature="0"
         style="clip-rule:evenodd" /></clipPath><clipPath
       clipPathUnits="userSpaceOnUse"
       id="clipPath52"><path
         d="M 1.4305e-5,0 H 960.00001 V 540 H 1.4305e-5 Z"
         id="path50"
         inkscape:connector-curvature="0"
         style="clip-rule:evenodd" /></clipPath><clipPath
       clipPathUnits="userSpaceOnUse"
       id="clipPath68"><path
         d="M 1.4305e-5,0 H 960.00001 V 540 H 1.4305e-5 Z"
         id="path66"
         inkscape:connector-curvature="0"
         style="clip-rule:evenodd" /></clipPath><clipPath
       clipPathUnits="userSpaceOnUse"
       id="clipPath80"><path
         d="M 1.4305e-5,0 H 960.00001 V 540 H 1.4305e-5 Z"
         id="path78"
         inkscape:connector-curvature="0"
         style="clip-rule:evenodd" /></clipPath><clipPath
       clipPathUnits="userSpaceOnUse"
       id="clipPath92"><path
         d="M 1.4305e-5,0 H 960.00001 V 540 H 1.4305e-5 Z"
         id="path90"
         inkscape:connector-curvature="0"
         style="clip-rule:evenodd" /></clipPath><clipPath
       clipPathUnits="userSpaceOnUse"
       id="clipPath108"><path
         d="M 1.4305e-5,0 H 960.00001 V 540 H 1.4305e-5 Z"
         id="path106"
         inkscape:connector-curvature="0"
         style="clip-rule:evenodd" /></clipPath><clipPath
       clipPathUnits="userSpaceOnUse"
       id="clipPath120"><path
         d="M 1.4305e-5,0 H 960.00001 V 540 H 1.4305e-5 Z"
         id="path118"
         inkscape:connector-curvature="0"
         style="clip-rule:evenodd" /></clipPath><clipPath
       clipPathUnits="userSpaceOnUse"
       id="clipPath136"><path
         d="M 1.4305e-5,0 H 960.00001 V 540 H 1.4305e-5 Z"
         id="path134"
         inkscape:connector-curvature="0"
         style="clip-rule:evenodd" /></clipPath><clipPath
       clipPathUnits="userSpaceOnUse"
       id="clipPath148"><path
         d="M 1.4305e-5,0 H 960.00001 V 540 H 1.4305e-5 Z"
         id="path146"
         inkscape:connector-curvature="0"
         style="clip-rule:evenodd" /></clipPath><clipPath
       clipPathUnits="userSpaceOnUse"
       id="clipPath164"><path
         d="M 1.4305e-5,0 H 960.00001 V 540 H 1.4305e-5 Z"
         id="path162"
         inkscape:connector-curvature="0"
         style="clip-rule:evenodd" /></clipPath><clipPath
       clipPathUnits="userSpaceOnUse"
       id="clipPath176"><path
         d="M 1.4305e-5,0 H 960.00001 V 540 H 1.4305e-5 Z"
         id="path174"
         inkscape:connector-curvature="0"
         style="clip-rule:evenodd" /></clipPath><clipPath
       clipPathUnits="userSpaceOnUse"
       id="clipPath192"><path
         d="M 1.4305e-5,0 H 960.00001 V 540 H 1.4305e-5 Z"
         id="path190"
         inkscape:connector-curvature="0"
         style="clip-rule:evenodd" /></clipPath><clipPath
       clipPathUnits="userSpaceOnUse"
       id="clipPath208"><path
         d="M 1.4305e-5,0 H 960.00001 V 540 H 1.4305e-5 Z"
         id="path206"
         inkscape:connector-curvature="0"
         style="clip-rule:evenodd" /></clipPath><clipPath
       clipPathUnits="userSpaceOnUse"
       id="clipPath224"><path
         d="M 1.4305e-5,0 H 960.00001 V 540 H 1.4305e-5 Z"
         id="path222"
         inkscape:connector-curvature="0"
         style="clip-rule:evenodd" /></clipPath><clipPath
       clipPathUnits="userSpaceOnUse"
       id="clipPath236"><path
         d="M 1.4305e-5,0 H 960.00001 V 540 H 1.4305e-5 Z"
         id="path234"
         inkscape:connector-curvature="0"
         style="clip-rule:evenodd" /></clipPath><clipPath
       clipPathUnits="userSpaceOnUse"
       id="clipPath262"><path
         d="M 1.4305e-5,0 H 960.00001 V 540 H 1.4305e-5 Z"
         id="path260"
         inkscape:connector-curvature="0"
         style="clip-rule:evenodd" /></clipPath><clipPath
       clipPathUnits="userSpaceOnUse"
       id="clipPath274"><path
         d="M 1.4305e-5,0 H 960.00001 V 540 H 1.4305e-5 Z"
         id="path272"
         inkscape:connector-curvature="0"
         style="clip-rule:evenodd" /></clipPath><clipPath
       clipPathUnits="userSpaceOnUse"
       id="clipPath286"><path
         d="M 1.4305e-5,0 H 960.00001 V 540 H 1.4305e-5 Z"
         id="path284"
         inkscape:connector-curvature="0"
         style="clip-rule:evenodd" /></clipPath><clipPath
       clipPathUnits="userSpaceOnUse"
       id="clipPath298"><path
         d="M 1.4305e-5,0 H 960.00001 V 540 H 1.4305e-5 Z"
         id="path296"
         inkscape:connector-curvature="0"
         style="clip-rule:evenodd" /></clipPath><clipPath
       clipPathUnits="userSpaceOnUse"
       id="clipPath310"><path
         d="M 1.4305e-5,0 H 960.00001 V 540 H 1.4305e-5 Z"
         id="path308"
         inkscape:connector-curvature="0"
         style="clip-rule:evenodd" /></clipPath><clipPath
       clipPathUnits="userSpaceOnUse"
       id="clipPath322"><path
         d="M 1.4305e-5,0 H 960.00001 V 540 H 1.4305e-5 Z"
         id="path320"
         inkscape:connector-curvature="0"
         style="clip-rule:evenodd" /></clipPath><clipPath
       clipPathUnits="userSpaceOnUse"
       id="clipPath338"><path
         d="M 1.4305e-5,0 H 960.00001 V 540 H 1.4305e-5 Z"
         id="path336"
         inkscape:connector-curvature="0"
         style="clip-rule:evenodd" /></clipPath><clipPath
       clipPathUnits="userSpaceOnUse"
       id="clipPath352"><path
         d="M 1.4305e-5,0 H 960.00001 V 540 H 1.4305e-5 Z"
         id="path350"
         inkscape:connector-curvature="0"
         style="clip-rule:evenodd" /></clipPath><clipPath
       clipPathUnits="userSpaceOnUse"
       id="clipPath368"><path
         d="M 1.4305e-5,0 H 960.00001 V 540 H 1.4305e-5 Z"
         id="path366"
         inkscape:connector-curvature="0"
         style="clip-rule:evenodd" /></clipPath><clipPath
       clipPathUnits="userSpaceOnUse"
       id="clipPath382"><path
         d="M 1.4305e-5,0 H 960.00001 V 540 H 1.4305e-5 Z"
         id="path380"
         inkscape:connector-curvature="0"
         style="clip-rule:evenodd" /></clipPath><clipPath
       clipPathUnits="userSpaceOnUse"
       id="clipPath396"><path
         d="M 1.4305e-5,0 H 960.00001 V 540 H 1.4305e-5 Z"
         id="path394"
         inkscape:connector-curvature="0"
         style="clip-rule:evenodd" /></clipPath><clipPath
       clipPathUnits="userSpaceOnUse"
       id="clipPath412"><path
         d="M 1.4305e-5,0 H 960.00001 V 540 H 1.4305e-5 Z"
         id="path410"
         inkscape:connector-curvature="0"
         style="clip-rule:evenodd" /></clipPath><clipPath
       clipPathUnits="userSpaceOnUse"
       id="clipPath424"><path
         d="M 1.4305e-5,0 H 960.00001 V 540 H 1.4305e-5 Z"
         id="path422"
         inkscape:connector-curvature="0"
         style="clip-rule:evenodd" /></clipPath><clipPath
       clipPathUnits="userSpaceOnUse"
       id="clipPath436"><path
         d="M 1.4305e-5,0 H 960.00001 V 540 H 1.4305e-5 Z"
         id="path434"
         inkscape:connector-curvature="0"
         style="clip-rule:evenodd" /></clipPath><clipPath
       clipPathUnits="userSpaceOnUse"
       id="clipPath452"><path
         d="M 1.4305e-5,0 H 960.00001 V 540 H 1.4305e-5 Z"
         id="path450"
         inkscape:connector-curvature="0"
         style="clip-rule:evenodd" /></clipPath><clipPath
       clipPathUnits="userSpaceOnUse"
       id="clipPath468"><path
         d="M 1.4305e-5,0 H 960.00001 V 540 H 1.4305e-5 Z"
         id="path466"
         inkscape:connector-curvature="0"
         style="clip-rule:evenodd" /></clipPath><clipPath
       clipPathUnits="userSpaceOnUse"
       id="clipPath480"><path
         d="M -1.0457e-5,540 H 960 V 1.2207e-4 H -4.9827e-5"
         id="path478"
         inkscape:connector-curvature="0"
         style="clip-rule:evenodd" /></clipPath><clipPath
       clipPathUnits="userSpaceOnUse"
       id="clipPath490"><path
         d="M -2.1008e-5,540 H 960 V 1.8311e-4 H -2.1008e-5"
         id="path488"
         inkscape:connector-curvature="0"
         style="clip-rule:evenodd" /></clipPath><clipPath
       clipPathUnits="userSpaceOnUse"
       id="clipPath500"><path
         d="M -1.533e-5,540 H 960 V 1.2207e-4 H -1.533e-5"
         id="path498"
         inkscape:connector-curvature="0"
         style="clip-rule:evenodd" /></clipPath><clipPath
       clipPathUnits="userSpaceOnUse"
       id="clipPath510"><path
         d="M -2.0831e-5,540 H 960 V 1.2207e-4 H -2.0831e-5"
         id="path508"
         inkscape:connector-curvature="0"
         style="clip-rule:evenodd" /></clipPath><clipPath
       clipPathUnits="userSpaceOnUse"
       id="clipPath520"><path
         d="M -1.2656e-5,540 H 960 V 1.2207e-4 H -5.2026e-5"
         id="path518"
         inkscape:connector-curvature="0"
         style="clip-rule:evenodd" /></clipPath><clipPath
       clipPathUnits="userSpaceOnUse"
       id="clipPath530"><path
         d="M -3.804e-6,540 H 960 V 1.2207e-4 H -4.3174e-5"
         id="path528"
         inkscape:connector-curvature="0"
         style="clip-rule:evenodd" /></clipPath><clipPath
       clipPathUnits="userSpaceOnUse"
       id="clipPath544"><path
         d="M 8.837e-6,540 H 960 V 1.2207e-4 H 8.837e-6"
         id="path542"
         inkscape:connector-curvature="0"
         style="clip-rule:evenodd" /></clipPath><clipPath
       clipPathUnits="userSpaceOnUse"
       id="clipPath554"><path
         d="M 4.715e-6,540 H 960 V 1.2207e-4 H 4.715e-6"
         id="path552"
         inkscape:connector-curvature="0"
         style="clip-rule:evenodd" /></clipPath><clipPath
       clipPathUnits="userSpaceOnUse"
       id="clipPath564"><path
         d="M 2.184e-5,540 H 960 V 1.2207e-4 H -1.753e-5"
         id="path562"
         inkscape:connector-curvature="0"
         style="clip-rule:evenodd" /></clipPath><clipPath
       clipPathUnits="userSpaceOnUse"
       id="clipPath574"><path
         d="M -8.677e-6,540 H 960 V 1.2207e-4 H -4.8047e-5"
         id="path572"
         inkscape:connector-curvature="0"
         style="clip-rule:evenodd" /></clipPath></defs><sodipodi:namedview
     pagecolor="#ffffff"
     bordercolor="#666666"
     borderopacity="1"
     objecttolerance="10"
     gridtolerance="10"
     guidetolerance="10"
     inkscape:pageopacity="0"
     inkscape:pageshadow="2"
     inkscape:window-width="1282"
     inkscape:window-height="761"
     id="namedview4"
     showgrid="false"
     fit-margin-top="0"
     fit-margin-left="0"
     fit-margin-right="0"
     fit-margin-bottom="0"
     inkscape:zoom="0.65555556"
     inkscape:cx="385.16949"
     inkscape:cy="355.42373"
     inkscape:window-x="26"
     inkscape:window-y="23"
     inkscape:window-maximized="0"
     inkscape:current-layer="g10"
     inkscape:pagecheckerboard="0" /><g
     id="g10"
     inkscape:groupmode="layer"
     inkscape:label="out"
     transform="matrix(1.3333333,0,0,-1.3333333,-139.71625,507.03999)"><path
       d="m 430.8,240.48 h 109.68 v 28.08 H 430.8 Z"
       style="fill:#ed7d31;fill-opacity:1;fill-rule:evenodd;stroke:none"
       id="path58"
       inkscape:connector-curvature="0" /><path
       d="m 430.8,240.48 h 109.68 v 28.08 H 430.8 Z"
       style="fill:none;stroke:#ed7d31;stroke-width:0.96;stroke-linecap:butt;stroke-linejoin:miter;stroke-miterlimit:10;stroke-dasharray:none;stroke-opacity:1"
       id="path60"
       inkscape:connector-curvature="0" /><g
       id="g62"><g
         id="g64"
         clip-path="url(#clipPath68)"><text
   transform="matrix(1,0,0,-1,463.44,249.82)"
   style="font-variant:normal;font-weight:normal;font-size:12px;font-family:Calibri;-inkscape-font-specification:Calibri;writing-mode:lr-tb;fill:#ffffff;fill-opacity:1;fill-rule:nonzero;stroke:none"
   id="text72"
   y="0"><tspan
     x="0 11.9996"
     y="0"
     sodipodi:role="line"
     id="tspan70">We</tspan></text>
</g></g><g
       id="g74"><g
         id="g76"
         clip-path="url(#clipPath80)"><text
   transform="matrix(1,0,0,-1,482.4,249.82)"
   style="font-variant:normal;font-weight:normal;font-size:12px;font-family:Calibri;-inkscape-font-specification:Calibri;writing-mode:lr-tb;fill:#ffffff;fill-opacity:1;fill-rule:nonzero;stroke:none"
   id="text84"><tspan
     x="0"
     y="0"
     id="tspan82">b</tspan></text>
</g></g><g
       id="g86"><g
         id="g88"
         clip-path="url(#clipPath92)"><text
   transform="matrix(1,0,0,-1,489.72,249.82)"
   style="font-variant:normal;font-weight:normal;font-size:12px;font-family:Calibri;-inkscape-font-specification:Calibri;writing-mode:lr-tb;fill:#ffffff;fill-opacity:1;fill-rule:nonzero;stroke:none"
   id="text96"
   y="0"><tspan
     x="0 9.1200399"
     y="0"
     sodipodi:role="line"
     id="tspan94">NN</tspan></text>
</g></g><path
       d="M 260.88,169.68 H 361.8 v 34.56 H 260.88 Z"
       style="fill:#4472c4;fill-opacity:1;fill-rule:evenodd;stroke:none"
       id="path98"
       inkscape:connector-curvature="0" /><path
       d="M 260.88,169.68 H 361.8 v 34.56 H 260.88 Z"
       style="fill:none;stroke:#4472c4;stroke-width:0.96;stroke-linecap:butt;stroke-linejoin:miter;stroke-miterlimit:10;stroke-dasharray:none;stroke-opacity:1"
       id="path100"
       inkscape:connector-curvature="0" /><g
       id="g102"><g
         id="g104"
         clip-path="url(#clipPath108)"><text
   transform="matrix(1,0,0,-1,279.74,190.56)"
   style="font-variant:normal;font-weight:normal;font-size:12px;font-family:Calibri;-inkscape-font-specification:Calibri;writing-mode:lr-tb;fill:#ffffff;fill-opacity:1;fill-rule:nonzero;stroke:none"
   id="text112"
   y="0"><tspan
     x="0 7.650816 16.792416 25.87776 32.375328 37.649326 49.674049 56.846687"
     y="0"
     sodipodi:role="line"
     id="tspan110">BNNS/MPS</tspan></text>
</g></g><g
       id="g114"><g
         id="g116"
         clip-path="url(#clipPath120)"><text
   transform="matrix(1,0,0,-1,279.02,173.74)"
   style="font-variant:normal;font-weight:normal;font-size:12px;font-family:Calibri;-inkscape-font-specification:Calibri;writing-mode:lr-tb;fill:#ffffff;fill-opacity:1;fill-rule:nonzero;stroke:none"
   id="text124"
   y="0"><tspan
     x="0 12.0042 18.729361 24.59808 33.836399 40.280762 45.700199 48.929401 58.223881"
     y="0"
     sodipodi:role="line"
     id="tspan122">MacOS/iOS</tspan></text>
</g></g><path
       d="m 384.96,169.68 h 90.6 v 34.56 h -90.6 z"
       style="fill:#4472c4;fill-opacity:1;fill-rule:evenodd;stroke:none"
       id="path126"
       inkscape:connector-curvature="0" /><path
       d="m 384.96,169.68 h 90.6 v 34.56 h -90.6 z"
       style="fill:none;stroke:#4472c4;stroke-width:0.96;stroke-linecap:butt;stroke-linejoin:miter;stroke-miterlimit:10;stroke-dasharray:none;stroke-opacity:1"
       id="path128"
       inkscape:connector-curvature="0" /><g
       id="g130"><g
         id="g132"
         clip-path="url(#clipPath136)"><text
   transform="matrix(1,0,0,-1,404.3,190.56)"
   style="font-variant:normal;font-weight:normal;font-size:12px;font-family:Calibri;-inkscape-font-specification:Calibri;writing-mode:lr-tb;fill:#ffffff;fill-opacity:1;fill-rule:nonzero;stroke:none"
   id="text140"
   y="0"><tspan
     x="0 8.6493597 11.88408 16.553328 23.515009 29.393761 34.105202 46.073666"
     y="0"
     sodipodi:role="line"
     id="tspan138">DirectML</tspan></text>
</g></g><g
       id="g142"><g
         id="g144"
         clip-path="url(#clipPath148)"><text
   transform="matrix(1,0,0,-1,403.58,173.74)"
   style="font-variant:normal;font-weight:normal;font-size:12px;font-family:Calibri;-inkscape-font-specification:Calibri;writing-mode:lr-tb;fill:#ffffff;fill-opacity:1;fill-rule:nonzero;stroke:none"
   id="text152"
   y="0"><tspan
     x="0 12.4956 15.7248 23.03964 30.354481 37.753559 47.79216"
     y="0"
     sodipodi:role="line"
     id="tspan150">Windows</tspan></text>
</g></g><path
       d="m 506.76,169.32 h 90.6 v 34.56 h -90.6 z"
       style="fill:#4472c4;fill-opacity:1;fill-rule:evenodd;stroke:none"
       id="path154"
       inkscape:connector-curvature="0" /><path
       d="m 506.76,169.32 h 90.6 v 34.56 h -90.6 z"
       style="fill:none;stroke:#4472c4;stroke-width:0.96;stroke-linecap:butt;stroke-linejoin:miter;stroke-miterlimit:10;stroke-dasharray:none;stroke-opacity:1"
       id="path156"
       inkscape:connector-curvature="0" /><g
       id="g158"><g
         id="g160"
         clip-path="url(#clipPath164)"><text
   transform="matrix(1,0,0,-1,532.15,190.2)"
   style="font-variant:normal;font-weight:normal;font-size:12px;font-family:Calibri;-inkscape-font-specification:Calibri;writing-mode:lr-tb;fill:#ffffff;fill-opacity:1;fill-rule:nonzero;stroke:none"
   id="text168"
   y="0"><tspan
     x="0 9.1119604 18.223921 21.102119 29.231279 36.48996"
     y="0"
     sodipodi:role="line"
     id="tspan166">NN API</tspan></text>
</g></g><g
       id="g170"><g
         id="g172"
         clip-path="url(#clipPath176)"><text
   transform="matrix(1,0,0,-1,529.39,173.4)"
   style="font-variant:normal;font-weight:normal;font-size:12px;font-family:Calibri;-inkscape-font-specification:Calibri;writing-mode:lr-tb;fill:#ffffff;fill-opacity:1;fill-rule:nonzero;stroke:none"
   id="text180"
   y="0"><tspan
     x="0 8.1291599 15.50016 22.800961 27.47628 34.875359 38.146679"
     y="0"
     sodipodi:role="line"
     id="tspan178">Android</tspan></text>
</g></g><path
       d="M 285.12,106.68 H 394.8 v 28.08 H 285.12 Z"
       style="fill:#4472c4;fill-opacity:1;fill-rule:evenodd;stroke:none"
       id="path182"
       inkscape:connector-curvature="0" /><path
       d="M 285.12,106.68 H 394.8 v 28.08 H 285.12 Z"
       style="fill:none;stroke:#4472c4;stroke-width:0.96;stroke-linecap:butt;stroke-linejoin:miter;stroke-miterlimit:10;stroke-dasharray:none;stroke-opacity:1"
       id="path184"
       inkscape:connector-curvature="0" /><g
       id="g186"><g
         id="g188"
         clip-path="url(#clipPath192)"><text
   transform="matrix(1,0,0,-1,328.15,115.99)"
   style="font-variant:normal;font-weight:normal;font-size:12px;font-family:Calibri;-inkscape-font-specification:Calibri;writing-mode:lr-tb;fill:#ffffff;fill-opacity:1;fill-rule:nonzero;stroke:none"
   id="text196"
   y="0"><tspan
     x="0 7.4411998 14.64372"
     y="0"
     sodipodi:role="line"
     id="tspan194">CPU</tspan></text>
</g></g><path
       d="m 430.2,106.08 h 109.68 v 28.08 H 430.2 Z"
       style="fill:#4472c4;fill-opacity:1;fill-rule:evenodd;stroke:none"
       id="path198"
       inkscape:connector-curvature="0" /><path
       d="m 430.2,106.08 h 109.68 v 28.08 H 430.2 Z"
       style="fill:none;stroke:#4472c4;stroke-width:0.96;stroke-linecap:butt;stroke-linejoin:miter;stroke-miterlimit:10;stroke-dasharray:none;stroke-opacity:1"
       id="path200"
       inkscape:connector-curvature="0" /><g
       id="g202"><g
         id="g204"
         clip-path="url(#clipPath208)"><text
   transform="matrix(1,0,0,-1,472.56,115.3)"
   style="font-variant:normal;font-weight:normal;font-size:12px;font-family:Calibri;-inkscape-font-specification:Calibri;writing-mode:lr-tb;fill:#ffffff;fill-opacity:1;fill-rule:nonzero;stroke:none"
   id="text212"
   y="0"><tspan
     x="0 8.8592396 16.11792"
     y="0"
     sodipodi:role="line"
     id="tspan210">GPU</tspan></text>
</g></g><path
       d="m 575.28,105.6 h 109.68 v 28.08 H 575.28 Z"
       style="fill:#ed7d31;fill-opacity:1;fill-rule:evenodd;stroke:none"
       id="path214"
       inkscape:connector-curvature="0" /><path
       d="m 575.28,105.6 h 109.68 v 28.08 H 575.28 Z"
       style="fill:none;stroke:#ed7d31;stroke-width:0.96;stroke-linecap:butt;stroke-linejoin:miter;stroke-miterlimit:10;stroke-dasharray:none;stroke-opacity:1"
       id="path216"
       inkscape:connector-curvature="0" /><g
       id="g218"><g
         id="g220"
         clip-path="url(#clipPath224)"><text
   transform="matrix(1,0,0,-1,584.09,114.91)"
   style="font-variant:normal;font-weight:normal;font-size:12px;font-family:Calibri;-inkscape-font-specification:Calibri;writing-mode:lr-tb;fill:#ffffff;fill-opacity:1;fill-rule:nonzero;stroke:none"
   id="text228"
   y="0"><tspan
     x="0 12.0042 17.900999"
     y="0"
     sodipodi:role="line"
     id="tspan226">ML </tspan></text>
</g></g><g
       id="g230"><g
         id="g232"
         clip-path="url(#clipPath236)"><text
   transform="matrix(1,0,0,-1,605.09,114.91)"
   style="font-variant:normal;font-weight:normal;font-size:12px;font-family:Calibri;-inkscape-font-specification:Calibri;writing-mode:lr-tb;fill:#ffffff;fill-opacity:1;fill-rule:nonzero;stroke:none"
   id="text240"
   y="0"><tspan
     x="0 8.1291599 14.06808 19.92276 26.91468 30.143881 37.079639 41.979599 48.704762 53.408161 60.80724 65.749321"
     y="0"
     sodipodi:role="line"
     id="tspan238">Accelerators</tspan></text>
</g></g><g
       id="g242"><path
         d="m 225.36,228.44 527.79,0.76"
         style="fill:none;stroke:#42719b;stroke-width:0.72;stroke-linecap:butt;stroke-linejoin:miter;stroke-miterlimit:10;stroke-dasharray:2.88, 2.16;stroke-dashoffset:0;stroke-opacity:1"
         id="path244"
         inkscape:connector-curvature="0" /></g><g
       id="g246"><path
         d="m 222,152 530.86,0.76"
         style="fill:none;stroke:#42719b;stroke-width:0.72;stroke-linecap:butt;stroke-linejoin:miter;stroke-miterlimit:10;stroke-dasharray:2.88, 2.16;stroke-dashoffset:0;stroke-opacity:1"
         id="path248"
         inkscape:connector-curvature="0" /></g><g
       id="g250"><path
         d="m 222.6,291.46 524.93,0.02"
         style="fill:none;stroke:#42719b;stroke-width:0.72;stroke-linecap:butt;stroke-linejoin:miter;stroke-miterlimit:10;stroke-dasharray:2.88, 2.16;stroke-dashoffset:0;stroke-opacity:1"
         id="path252"
         inkscape:connector-curvature="0" /></g><path
       d="m 422.28,301.68 h 126.36 v 28.08 H 422.28 Z"
       style="fill:none;stroke:#4472c4;stroke-width:0.96;stroke-linecap:butt;stroke-linejoin:miter;stroke-miterlimit:10;stroke-dasharray:none;stroke-opacity:1"
       id="path254"
       inkscape:connector-curvature="0" /><g
       id="g256"><g
         id="g258"
         clip-path="url(#clipPath262)"><text
   transform="matrix(1,0,0,-1,434.18,310.99)"
   style="font-variant:normal;font-weight:normal;font-size:12.04px;font-family:Arial;-inkscape-font-specification:Calibri;writing-mode:lr-tb;fill:#000000;fill-opacity:1;fill-rule:nonzero;stroke:none"
   id="text266"
   y="0"><tspan
     x="0 4.4787598 10.92312 14.04 26.044201 31.941 35.043839 39.326038 44.04348 50.768639 61.930439 68.767921 78.722282 86.121361 91.063438 97.297203"
     y="0"
     sodipodi:role="line"
     id="tspan264">JS ML frameworks</tspan></text>
</g></g><g
       id="g268"><g
         id="g270"
         clip-path="url(#clipPath274)"><text
   transform="matrix(1,0,0,-1,133.73,316.3)"
   style="font-variant:normal;font-weight:normal;font-size:12px;font-family:Calibri;-inkscape-font-specification:Calibri;writing-mode:lr-tb;fill:#000000;fill-opacity:1;fill-rule:nonzero;stroke:none"
   id="text278"
   y="0"><tspan
     x="0 12.0042 18.99612 26.282881 29.512079 37.641239 45.012241"
     y="0"
     sodipodi:role="line"
     id="tspan276">Web App</tspan></text>
</g></g><g
       id="g280"><g
         id="g282"
         clip-path="url(#clipPath286)"><text
   transform="matrix(1,0,0,-1,109.32,250.51)"
   style="font-variant:normal;font-weight:normal;font-size:12px;font-family:Calibri;-inkscape-font-specification:Calibri;writing-mode:lr-tb;fill:#000000;fill-opacity:1;fill-rule:nonzero;stroke:none"
   id="text290"
   y="0"><tspan
     x="0 12.0042 18.99612 26.282881 29.512079 37.177921 41.853241 49.252319 59.29092 64.780563 71.772476"
     y="0"
     sodipodi:role="line"
     id="tspan288">Web Browser</tspan></text>
</g></g><g
       id="g292"><g
         id="g294"
         clip-path="url(#clipPath298)"><text
   transform="matrix(1,0,0,-1,103.92,181.94)"
   style="font-variant:normal;font-weight:normal;font-size:12px;font-family:Calibri;-inkscape-font-specification:Calibri;writing-mode:lr-tb;fill:#000000;fill-opacity:1;fill-rule:nonzero;stroke:none"
   id="text302"
   y="0"><tspan
     x="0 9.1119604 15.71076 20.41416 23.64336 29.877119"
     y="0"
     sodipodi:role="line"
     id="tspan300">Native</tspan></text>
</g></g><g
       id="g304"><g
         id="g306"
         clip-path="url(#clipPath310)"><text
   transform="matrix(1,0,0,-1,143.9,181.94)"
   style="font-variant:normal;font-weight:normal;font-size:12px;font-family:Calibri;-inkscape-font-specification:Calibri;writing-mode:lr-tb;fill:#000000;fill-opacity:1;fill-rule:nonzero;stroke:none"
   id="text314"
   y="0"><tspan
     x="0 12.0042 17.900999 21.003839 29.132999 36.391682"
     y="0"
     sodipodi:role="line"
     id="tspan312">ML API</tspan></text>
</g></g><g
       id="g316"><g
         id="g318"
         clip-path="url(#clipPath322)"><text
   transform="matrix(1,0,0,-1,127.56,118.94)"
   style="font-variant:normal;font-weight:normal;font-size:12px;font-family:Calibri;-inkscape-font-specification:Calibri;writing-mode:lr-tb;fill:#000000;fill-opacity:1;fill-rule:nonzero;stroke:none"
   id="text326"
   y="0"><tspan
     x="0 8.7469196 15.47208 20.16144 27.47628 37.430641 44.1558 48.83112"
     y="0"
     sodipodi:role="line"
     id="tspan324">Hardware</tspan></text>
</g></g><path
       d="m 564.36,240.6 h 109.68 v 28.08 H 564.36 Z"
       style="fill:#70ad47;fill-opacity:1;fill-rule:evenodd;stroke:none"
       id="path328"
       inkscape:connector-curvature="0" /><path
       d="m 564.36,240.6 h 109.68 v 28.08 H 564.36 Z"
       style="fill:none;stroke:#70ad47;stroke-width:0.96;stroke-linecap:butt;stroke-linejoin:miter;stroke-miterlimit:10;stroke-dasharray:none;stroke-opacity:1"
       id="path330"
       inkscape:connector-curvature="0" /><g
       id="g332"><g
         id="g334"
         clip-path="url(#clipPath338)"><text
   transform="matrix(1,0,0,-1,579.05,249.86)"
   style="font-variant:normal;font-weight:normal;font-size:12px;font-family:Calibri;-inkscape-font-specification:Calibri;writing-mode:lr-tb;fill:#ffffff;fill-opacity:1;fill-rule:nonzero;stroke:none"
   id="text342"
   y="0"><tspan
     x="0 12.0042 18.99612 26.282881 34.412041 39.943802 45.433441 52.425362 63.587158 70.902 74.131203"
     y="0"
     sodipodi:role="line"
     id="tspan340">WebAssembly</tspan></text>
</g></g><path
       d="M 297.84,351.96 H 407.52 V 379.8 H 297.84 Z"
       style="fill:none;stroke:#4472c4;stroke-width:0.96;stroke-linecap:butt;stroke-linejoin:miter;stroke-miterlimit:10;stroke-dasharray:none;stroke-opacity:1"
       id="path344"
       inkscape:connector-curvature="0" /><g
       id="g346"><g
         id="g348"
         clip-path="url(#clipPath352)"><text
   transform="matrix(1,0,0,-1,312.55,361.15)"
   style="font-variant:normal;font-weight:normal;font-size:12px;font-family:Calibri;-inkscape-font-specification:Calibri;writing-mode:lr-tb;fill:#000000;fill-opacity:1;fill-rule:nonzero;stroke:none"
   id="text356"
   y="0"><tspan
     x="0 9.2383204 18.350281 27.46224 34.749001 37.655281 49.659481 57.058559 64.429558 71.379356 74.608559"
     y="0"
     sodipodi:role="line"
     id="tspan354">ONNX Models</tspan></text>
</g></g><path
       d="m 298.56,240.84 h 109.56 v 27.84 H 298.56 Z"
       style="fill:#70ad47;fill-opacity:1;fill-rule:evenodd;stroke:none"
       id="path358"
       inkscape:connector-curvature="0" /><path
       d="m 298.56,240.84 h 109.56 v 27.84 H 298.56 Z"
       style="fill:none;stroke:#70ad47;stroke-width:0.96;stroke-linecap:butt;stroke-linejoin:miter;stroke-miterlimit:10;stroke-dasharray:none;stroke-opacity:1"
       id="path360"
       inkscape:connector-curvature="0" /><g
       id="g362"><g
         id="g364"
         clip-path="url(#clipPath368)"><text
   transform="scale(1,-1)"
   style="font-variant:normal;font-weight:normal;font-size:12px;font-family:Calibri;-inkscape-font-specification:Calibri;writing-mode:lr-tb;fill:#ffffff;fill-opacity:1;fill-rule:nonzero;stroke:none"
   id="text372"
   y="-250.00999"
   x="281.98999"><tspan
     x="328.44836 340.43851 347.43045 354.71719 363.57645 370.83511"
     sodipodi:role="line"
     id="tspan370">WebGPU</tspan></text>
</g></g><path
       d="m 422.64,351.72 h 126 v 28.08 h -126 z"
       style="fill:none;stroke:#4472c4;stroke-width:0.96;stroke-linecap:butt;stroke-linejoin:miter;stroke-miterlimit:10;stroke-dasharray:none;stroke-opacity:1"
       id="path374"
       inkscape:connector-curvature="0" /><g
       id="g376"><g
         id="g378"
         clip-path="url(#clipPath382)"><text
   transform="matrix(1,0,0,-1,430.56,361.01)"
   style="font-variant:normal;font-weight:normal;font-size:12px;font-family:Calibri;-inkscape-font-specification:Calibri;writing-mode:lr-tb;fill:#000000;fill-opacity:1;fill-rule:nonzero;stroke:none"
   id="text386"
   y="0"><tspan
     x="0 5.6440802 12.636 19.92276 25.412399 32.867641 37.767601 44.254082 47.48328 54.92448 64.963081 67.77108 79.775284 87.174362 94.545357 101.49516 104.72436"
     y="0"
     sodipodi:role="line"
     id="tspan384">TensorFlow Models</tspan></text>
</g></g><path
       d="M 561.96,351.96 H 671.64 V 379.8 H 561.96 Z"
       style="fill:none;stroke:#4472c4;stroke-width:0.96;stroke-linecap:butt;stroke-linejoin:miter;stroke-miterlimit:10;stroke-dasharray:none;stroke-opacity:1"
       id="path388"
       inkscape:connector-curvature="0" /><g
       id="g390"><g
         id="g392"
         clip-path="url(#clipPath396)"><text
   transform="matrix(1,0,0,-1,577.49,361.15)"
   style="font-variant:normal;font-weight:normal;font-size:12px;font-family:Calibri;-inkscape-font-specification:Calibri;writing-mode:lr-tb;fill:#000000;fill-opacity:1;fill-rule:nonzero;stroke:none"
   id="text400"
   y="0"><tspan
     x="0 9.2383204 13.94172 21.242519 28.23444 33.134399 36.34956 48.35376 55.752838 63.12384 70.073639 73.302841"
     y="0"
     sodipodi:role="line"
     id="tspan398">Other Models</tspan></text>
</g></g><path
       d="M 626.4,169.56 H 717 v 34.56 h -90.6 z"
       style="fill:#4472c4;fill-opacity:1;fill-rule:evenodd;stroke:none"
       id="path402"
       inkscape:connector-curvature="0" /><path
       d="M 626.4,169.56 H 717 v 34.56 h -90.6 z"
       style="fill:none;stroke:#4472c4;stroke-width:0.96;stroke-linecap:butt;stroke-linejoin:miter;stroke-miterlimit:10;stroke-dasharray:none;stroke-opacity:1"
       id="path404"
       inkscape:connector-curvature="0" /><g
       id="g406"><g
         id="g408"
         clip-path="url(#clipPath412)"><text
   transform="matrix(1,0,0,-1,641.47,190.42)"
   style="font-variant:normal;font-weight:normal;font-size:12px;font-family:Calibri;-inkscape-font-specification:Calibri;writing-mode:lr-tb;fill:#ffffff;fill-opacity:1;fill-rule:nonzero;stroke:none"
   id="text416"
   y="0"><tspan
     x="0 9.2383204 16.55316 23.54508 30.831841 38.792519 42.232319 51.34428"
     y="0"
     sodipodi:role="line"
     id="tspan414">OpenVINO</tspan></text>
</g></g><g
       id="g418"><g
         id="g420"
         clip-path="url(#clipPath424)"><text
   transform="matrix(1,0,0,-1,656.83,173.62)"
   style="font-variant:normal;font-weight:normal;font-size:12px;font-family:Calibri;-inkscape-font-specification:Calibri;writing-mode:lr-tb;fill:#ffffff;fill-opacity:1;fill-rule:nonzero;stroke:none"
   id="text428"
   y="0"><tspan
     x="0 5.8968 9.1260004 16.44084 23.75568"
     y="0"
     sodipodi:role="line"
     id="tspan426">Linux</tspan></text>
</g></g><g
       id="g430"><g
         id="g432"
         clip-path="url(#clipPath436)"><text
   transform="matrix(1,0,0,-1,555.41,311.54)"
   style="font-variant:normal;font-weight:normal;font-size:12px;font-family:Calibri;-inkscape-font-specification:Calibri;writing-mode:lr-tb;fill:#000000;fill-opacity:1;fill-rule:nonzero;stroke:none"
   id="text440"
   y="0"><tspan
     x="0 5.6440802 12.636 19.92276 25.412399 32.867641 37.767601 44.254082 47.48328 54.92448 64.162804 67.644722 71.000282 76.489922 79.999924 82.7658 92.00412 101.11608 110.22804 117.5148 121.13712 124.49268 129.98232 132.77628 139.61375 144.17676 150.05952 153.63972"
     y="0"
     sodipodi:role="line"
     id="tspan438">TensorFlow.js, ONNX.js etc.,</tspan></text>
</g></g><path
       d="m 356.28,123.36 h 38.52 v 11.4 h -38.52 z"
       style="fill:#ed7d31;fill-opacity:1;fill-rule:evenodd;stroke:none"
       id="path442"
       inkscape:connector-curvature="0" /><path
       d="m 356.28,123.36 h 38.52 v 11.4 h -38.52 z"
       style="fill:none;stroke:#ed7d31;stroke-width:0.96;stroke-linecap:butt;stroke-linejoin:miter;stroke-miterlimit:10;stroke-dasharray:none;stroke-opacity:1"
       id="path444"
       inkscape:connector-curvature="0" /><g
       id="g446"><g
         id="g448"
         clip-path="url(#clipPath452)"><text
   transform="matrix(1,0,0,-1,361.97,126)"
   style="font-variant:normal;font-weight:normal;font-size:9px;font-family:Calibri;-inkscape-font-specification:Calibri;writing-mode:lr-tb;fill:#ffffff;fill-opacity:1;fill-rule:nonzero;stroke:none"
   id="text456"
   y="0"><tspan
     x="0 7.6950002 11.511 13.428 17.856001 21.698999 24.714001"
     y="0"
     sodipodi:role="line"
     id="tspan454">ML Ext.</tspan></text>
</g></g><path
       d="m 501.36,122.76 h 38.52 v 11.52 h -38.52 z"
       style="fill:#ed7d31;fill-opacity:1;fill-rule:evenodd;stroke:none"
       id="path458"
       inkscape:connector-curvature="0" /><path
       d="m 501.36,122.76 h 38.52 v 11.52 h -38.52 z"
       style="fill:none;stroke:#ed7d31;stroke-width:0.96;stroke-linecap:butt;stroke-linejoin:miter;stroke-miterlimit:10;stroke-dasharray:none;stroke-opacity:1"
       id="path460"
       inkscape:connector-curvature="0" /><g
       id="g462"><g
         id="g464"
         clip-path="url(#clipPath468)"><text
   transform="matrix(1,0,0,-1,507.1,125.42)"
   style="font-variant:normal;font-weight:normal;font-size:9px;font-family:Calibri;-inkscape-font-specification:Calibri;writing-mode:lr-tb;fill:#ffffff;fill-opacity:1;fill-rule:nonzero;stroke:none"
   id="text472"
   y="0"><tspan
     x="0 7.6950002 11.511 13.428 17.856001 21.698999 24.714001"
     y="0"
     sodipodi:role="line"
     id="tspan470">ML Ext.</tspan></text>
</g></g><g
       id="g474"><g
         id="g476"
         clip-path="url(#clipPath480)"><path
           d="m 352.18,351.96 v -11.57 h 133.36 l -0.5,0.5 v -6.07 h 1 v 6.57 H 352.68 l 0.5,-0.5 v 11.07 z m 130.36,-16.14 3,-6 3,6 z"
           style="fill:#4472c4;fill-opacity:1;fill-rule:nonzero;stroke:none"
           id="path482"
           inkscape:connector-curvature="0" /></g></g><g
       id="g484"><g
         id="g486"
         clip-path="url(#clipPath490)"><path
           d="m 486.18,351.72 v -11.47 h -0.66 l 0.5,0.5 v -5.96 h -1 v 6.46 h 0.66 l -0.5,-0.5 v 10.97 z m 2.34,-15.93 -3,-6 -3,6 z"
           style="fill:#4472c4;fill-opacity:1;fill-rule:nonzero;stroke:none"
           id="path492"
           inkscape:connector-curvature="0" /></g></g><g
       id="g494"><g
         id="g496"
         clip-path="url(#clipPath500)"><path
           d="M 617.34,351.96 V 340.39 H 485.52 l 0.5,0.5 v -6.07 h -1 v 6.57 h 131.82 l -0.5,-0.5 v 11.07 z m -128.82,-16.14 -3,-6 -3,6 z"
           style="fill:#4472c4;fill-opacity:1;fill-rule:nonzero;stroke:none"
           id="path502"
           inkscape:connector-curvature="0" /></g></g><g
       id="g504"><g
         id="g506"
         clip-path="url(#clipPath510)"><path
           d="M 485.96,301.68 V 284.7 H 353.28 l 0.5,0.5 v -11.47 h -1 v 11.97 h 132.68 l -0.5,-0.5 v 16.48 z m -129.68,-26.95 -3,-6 -3,6 z"
           style="fill:#4472c4;fill-opacity:1;fill-rule:nonzero;stroke:none"
           id="path512"
           inkscape:connector-curvature="0" /></g></g><g
       id="g514"><g
         id="g516"
         clip-path="url(#clipPath520)"><path
           d="m 485.02,301.68 v -17.04 h 0.63 l -0.5,0.5 V 273.6 h 1 v 12.04 h -0.63 l 0.5,-0.5 v 16.54 z m -2.37,-27.08 3,-6 3,6 z"
           style="fill:#4472c4;fill-opacity:1;fill-rule:nonzero;stroke:none"
           id="path522"
           inkscape:connector-curvature="0" /></g></g><g
       id="g524"><g
         id="g526"
         clip-path="url(#clipPath530)"><path
           d="m 485.02,301.68 v -17.01 h 134.21 l -0.5,0.5 v -11.51 h 1 v 12.01 H 485.52 l 0.5,-0.5 v 16.51 z m 131.21,-27.02 3,-6 3,6 z"
           style="fill:#4472c4;fill-opacity:1;fill-rule:nonzero;stroke:none"
           id="path532"
           inkscape:connector-curvature="0" /></g></g><path
       d="m 413.12,255.26 h 6.83 v -0.69 l -0.5,0.5 h 6.32 v -1 h -6.82 v 0.69 l 0.5,-0.5 h -6.33 z m 1,-3.5 -6,3 6,3 z m 10.65,5.81 6,-3 -6,-3 z"
       style="fill:#4472c4;fill-opacity:1;fill-rule:nonzero;stroke:none"
       id="path534"
       inkscape:connector-curvature="0" /><path
       d="m 545.48,254.09 h 7.47 v 0.55 l -0.5,-0.5 h 6.96 v 1 h -7.46 v -0.55 l 0.5,0.5 h -6.97 z m 1,3.5 -6,-3 6,-3 z m 11.93,-5.95 6,3 -6,3 z"
       style="fill:#4472c4;fill-opacity:1;fill-rule:nonzero;stroke:none"
       id="path536"
       inkscape:connector-curvature="0" /><g
       id="g538"><g
         id="g540"
         clip-path="url(#clipPath544)"><path
           d="M 486.16,240.48 V 221.81 H 311.4 l 0.5,0.5 v -13.17 h -1 v 13.67 h 174.76 l -0.5,-0.5 v 18.17 z m -171.76,-30.34 -3,-6 -3,6 z"
           style="fill:#4472c4;fill-opacity:1;fill-rule:nonzero;stroke:none"
           id="path546"
           inkscape:connector-curvature="0" /></g></g><g
       id="g548"><g
         id="g550"
         clip-path="url(#clipPath554)"><path
           d="M 486.13,240.48 V 221.81 H 430.2 l 0.5,0.5 v -13.17 h -1 v 13.67 h 55.93 l -0.5,-0.5 v 18.17 z m -52.93,-30.34 -3,-6 -3,6 z"
           style="fill:#4472c4;fill-opacity:1;fill-rule:nonzero;stroke:none"
           id="path556"
           inkscape:connector-curvature="0" /></g></g><g
       id="g558"><g
         id="g560"
         clip-path="url(#clipPath564)"><path
           d="m 485.14,240.48 v -18.84 h 66.9 l -0.5,0.5 v -13.35 h 1 v 13.85 h -66.9 l 0.5,-0.5 v 18.34 z m 63.9,-30.69 3,-6 3,6 z"
           style="fill:#4472c4;fill-opacity:1;fill-rule:nonzero;stroke:none"
           id="path566"
           inkscape:connector-curvature="0" /></g></g><g
       id="g568"><g
         id="g570"
         clip-path="url(#clipPath574)"><path
           d="m 485.14,240.48 v -18.73 h 186.52 l -0.5,0.5 v -13.23 h 1 v 13.73 H 485.64 l 0.5,-0.5 v 18.23 z m 183.52,-30.46 3,-6 3,6 z"
           style="fill:#4472c4;fill-opacity:1;fill-rule:nonzero;stroke:none"
           id="path576"
           inkscape:connector-curvature="0" /></g></g><path
       d="m 375.98,151.92 v -12.14 h -1 v 12.14 z m 2.5,-11.14 -3,-6 -3,6 z"
       style="fill:#4472c4;fill-opacity:1;fill-rule:nonzero;stroke:none"
       id="path578"
       inkscape:connector-curvature="0" /><path
       d="m 521.06,153.12 v -13.83 h -1 v 13.83 z m 2.5,-12.83 -3,-6 -3,6 z"
       style="fill:#4472c4;fill-opacity:1;fill-rule:nonzero;stroke:none"
       id="path580"
       inkscape:connector-curvature="0" /><path
       d="m 630.62,152.76 v -13.98 h -1 v 13.98 z m 2.5,-12.98 -3,-6 -3,6 z"
       style="fill:#4472c4;fill-opacity:1;fill-rule:nonzero;stroke:none"
       id="path582"
       inkscape:connector-curvature="0" /><flowRoot
       xml:space="preserve"
       id="flowRoot622"
       style="font-style:normal;font-variant:normal;font-weight:normal;font-stretch:normal;font-size:18.7507px;line-height:125%;font-family:'DejaVu Sans';-inkscape-font-specification:'DejaVu Sans, Normal';font-variant-ligatures:normal;font-variant-caps:normal;font-variant-numeric:normal;font-feature-settings:normal;text-align:center;letter-spacing:0px;word-spacing:0px;writing-mode:lr-tb;text-anchor:middle;fill:#000000;fill-opacity:1;stroke:none;stroke-width:1px;stroke-linecap:butt;stroke-linejoin:miter;stroke-opacity:1"><flowRegion
         id="flowRegion624"
         style="font-style:normal;font-variant:normal;font-weight:normal;font-stretch:normal;font-size:18.7507px;font-family:'DejaVu Sans';-inkscape-font-specification:'DejaVu Sans, Normal';font-variant-ligatures:normal;font-variant-caps:normal;font-variant-numeric:normal;font-feature-settings:normal;text-align:center;writing-mode:lr-tb;text-anchor:middle"><rect
           id="rect626"
           width="837.45764"
           height="451.52542"
           x="-13.728813"
           y="-34.814625"
           style="-inkscape-font-specification:'DejaVu Sans, Normal';font-family:'DejaVu Sans';font-weight:normal;font-style:normal;font-stretch:normal;font-variant:normal;font-size:18.7506663px;text-anchor:middle;text-align:center;writing-mode:lr;font-variant-ligatures:normal;font-variant-caps:normal;font-variant-numeric:normal;font-feature-settings:normal;" /></flowRegion><flowPara
         id="flowPara628" /></flowRoot></g></svg>
